<svg width="23" height="23" viewBox="0 0 23 23" fill="none" xmlns="http://www.w3.org/2000/svg">
<circle cx="11.5" cy="11.5" r="11.5" fill="#4B4B4B"/>
<path d="M9.368 9.728H7.288C7.368 7.728 9.016 6.352 11.224 6.352C13.464 6.352 15 7.616 15 9.392C15 10.288 14.456 11.056 13.56 11.792L12.456 12.672C11.704 13.296 11.592 13.696 11.72 14.544H10.296C9.832 13.344 9.752 12.592 10.696 11.792L11.768 10.88C12.264 10.432 12.536 10.112 12.536 9.568C12.536 8.832 11.96 8.32 11 8.32C10.056 8.32 9.432 8.88 9.368 9.728ZM12.456 16.624C12.456 17.472 11.784 18.08 10.904 18.08C10.008 18.08 9.336 17.472 9.336 16.624C9.336 15.776 9.976 15.152 10.904 15.152C11.8 15.152 12.456 15.776 12.456 16.624Z" fill="#F3F3F3"/>
</svg>
