<svg width="30" height="30" viewBox="0 0 30 30" fill="none" xmlns="http://www.w3.org/2000/svg">
<g clip-path="url(#clip0_0_738)">
<g clip-path="url(#clip1_0_738)">
<path d="M14.9595 0.00965209C23.2438 0.00965245 29.9595 6.72538 29.9595 15.0097C29.9595 23.2939 23.2438 30.0097 14.9595 30.0097L4.95774 30.0097C2.1973 30.0097 -0.0404794 27.7719 -0.0404793 25.0114L-0.0404784 5.00787C-0.0404783 2.24743 2.1973 0.00965153 4.95774 0.00965165L14.9595 0.00965209Z" fill="#2D2D2D"/>
<path d="M15.6024 8.25978C15.6024 10.7451 17.6171 12.7598 20.1024 12.7598C22.5877 12.7598 24.6024 10.7451 24.6024 8.25978C24.6024 5.7745 22.5877 3.75978 20.1024 3.75978C17.6171 3.75978 15.6024 5.7745 15.6024 8.25978Z" fill="white"/>
<path d="M17.6032 8.25984C17.6032 9.64005 18.7221 10.7589 20.1023 10.7589C21.4825 10.7589 22.6014 9.64006 22.6014 8.25984C22.6014 6.87962 21.4825 5.76073 20.1023 5.76073C18.7221 5.76073 17.6032 6.87962 17.6032 8.25984Z" fill="#2D2D2D"/>
<path d="M20.531 6.33121C20.531 7.15964 21.2025 7.83121 22.031 7.83121C22.8594 7.83121 23.531 7.15964 23.531 6.33121C23.531 5.50278 22.8594 4.83121 22.031 4.83121C21.2025 4.83121 20.531 5.50278 20.531 6.33121Z" fill="white"/>
<path d="M15.6024 21.7598C15.6024 24.2451 17.6171 26.2598 20.1024 26.2598C22.5877 26.2598 24.6024 24.2451 24.6024 21.7598C24.6024 19.2745 22.5877 17.2598 20.1024 17.2598C17.6171 17.2598 15.6024 19.2745 15.6024 21.7598Z" fill="white"/>
<path d="M17.6033 21.7598C17.6033 23.14 18.7222 24.2589 20.1024 24.2589C21.4826 24.2589 22.6015 23.14 22.6015 21.7598C22.6015 20.3796 21.4826 19.2607 20.1024 19.2607C18.7222 19.2607 17.6033 20.3796 17.6033 21.7598Z" fill="#2D2D2D"/>
<path d="M20.531 19.8312C20.531 20.6596 21.2025 21.3312 22.031 21.3312C22.8594 21.3312 23.531 20.6596 23.531 19.8312C23.531 19.0028 22.8594 18.3312 22.031 18.3312C21.2025 18.3312 20.531 19.0028 20.531 19.8312Z" fill="white"/>
<path d="M9.70952 7.18835C9.70952 9.67363 11.7242 11.6884 14.2095 11.6884C16.6948 11.6884 18.7095 9.67363 18.7095 7.18835C18.7095 4.70307 16.6948 2.68835 14.2095 2.68835C11.7242 2.68835 9.70953 4.70307 9.70952 7.18835Z" fill="#2D2D2D"/>
<path d="M9.70952 22.7241C9.70952 25.2093 11.7242 27.2241 14.2095 27.2241C16.6948 27.2241 18.7095 25.2093 18.7095 22.7241C18.7095 20.2388 16.6948 18.2241 14.2095 18.2241C11.7242 18.2241 9.70952 20.2388 9.70952 22.7241Z" fill="#2D2D2D"/>
<path d="M13.1339 9.06648C12.354 8.74611 11.518 8.58121 10.6738 8.58121L-0.0404799 14.9562L17.1024 14.9562C17.1024 14.119 16.9361 13.2901 16.613 12.5166C16.29 11.7432 15.8164 11.0404 15.2195 10.4484C14.6225 9.85643 13.9139 9.38685 13.1339 9.06648Z" fill="#CACACA"/>
<path d="M13.1339 20.8459C12.354 21.1663 11.518 21.3312 10.6738 21.3312L-0.0404778 14.9562L17.1024 14.9562C17.1024 15.7934 16.9361 16.6224 16.613 17.3958C16.29 18.1693 15.8164 18.872 15.2195 19.464C14.6225 20.056 13.9139 20.5256 13.1339 20.8459Z" fill="#6E00FF"/>
</g>
</g>
<defs>
<clipPath id="clip0_0_738">
<rect width="30" height="30" fill="white" transform="translate(30) rotate(90)"/>
</clipPath>
<clipPath id="clip1_0_738">
<rect width="29.9108" height="30" fill="white" transform="translate(30) rotate(90)"/>
</clipPath>
</defs>
</svg>
